<svg xmlns="http://www.w3.org/2000/svg" xmlns:xlink="http://www.w3.org/1999/xlink" width="900" height="35" viewBox="0 0 900 35">
  <defs>
    <style>
      .cls-1 {
        fill: #a41f24;
        fill-rule: evenodd;
        filter: url(#filter);
      }
    </style>
    <filter id="filter" x="0" y="1" width="900" height="34" filterUnits="userSpaceOnUse">
      <feFlood result="flood" flood-color="#4c3519"/>
      <feComposite result="composite" operator="in" in2="SourceGraphic"/>
      <feBlend result="blend" in2="SourceGraphic"/>
    </filter>
  </defs>
  <path id="形狀_1" data-name="形狀 1" class="cls-1" d="M492.617,7.971L900,9.216l-407.387.34Zm-85.241,0L0,10.351l407.392-.795Zm47.329,0.087s5.769-7.82,18.966-7c0,0,15.323,1.369,14.769,12.736,0,0-.472,6.732-10.663,5.918,0,0-5.294-.1-15.569-8.37,0,0-2.526-2.006-5.368-4.009l0.554-.631s13.9,12,20.541,12.365c0,0,9.4,1.458,10.113-5.364,0,0,1.655-10.189-14.46-11.643A21.611,21.611,0,0,0,455.26,8.609s-9.087,9.64-.159,18.648c0,0,6.482,7.187,13.985-1.912,0,0-5.06,9.645-14.539,2.458C454.547,27.8,445.466,19.709,454.705,8.058Zm1.584-2.089s-6.953-4.914-13.278-2.184c0,0,5.534-2.092,12.8,2.73Zm20.142,14.647s-2.368,1-7.266-2.182L455.26,8.609S446.1,2.693,440.41,5.06c0,0-3.635,1.183-3.477,4.907,0,0-.475,3.824,4.108,4.913,0,0,4.344.458,4.738-3,0,0-1.5,0-2.526,2.277a4.258,4.258,0,0,1-2.291.179s-3.874-.637-3.636-4.37a4.844,4.844,0,0,1,3.24-4.451s6.084-2.279,14.377,3.907c0,0,11.775,8.644,13.905,9.641C468.848,19.065,473.35,21.8,476.431,20.616Zm-32.822-6.054-0.473.187A2.975,2.975,0,0,0,444,17.024S443.136,15.382,443.609,14.562Zm2.615-6.834s-5.986-7.653-19.151-6.458c0,0-15.285,1.814-14.4,13.163,0,0,.664,6.711,10.829,5.6,0,0,5.292-.247,15.321-8.815,0,0,2.467-2.078,5.252-4.159L443.5,6.442s-13.555,12.4-20.177,12.958c0,0-9.354,1.728-10.263-5.071,0,0-1.949-10.138,14.12-12.057a21.61,21.61,0,0,1,18.508,6.018s9.358,9.374.7,18.637c0,0-6.272,7.369-14.034-1.508,0,0,5.329,9.494,14.6,2.037C446.949,27.458,455.8,19.106,446.224,7.727Zm-1.637-2.046s6.8-5.11,13.207-2.567c0,0-5.591-1.928-12.716,3.1ZM424.868,20.9s2.4,0.933,7.2-2.392L445.688,8.291s8.994-6.18,14.747-3.977c0,0,3.662,1.078,3.615,4.808,0,0,.582,3.809-3.968,5.032,0,0-4.327.581-4.826-2.866,0,0,1.5-.044,2.593,2.2a4.266,4.266,0,0,0,2.3.117s3.856-.75,3.508-4.475a4.838,4.838,0,0,0-3.366-4.358s-6.145-2.1-14.258,4.323c0,0-11.521,8.98-13.626,10.042C432.4,19.14,427.983,22,424.868,20.9Zm32.641-7,0.475,0.174a2.98,2.98,0,0,1-.8,2.3S458,14.712,457.509,13.906ZM450.544,25.6a2.868,2.868,0,1,0-2.847-2.88A2.865,2.865,0,0,0,450.544,25.6Zm0.016-2.868a1.04,1.04,0,1,1-1.045,1.037A1.036,1.036,0,0,1,450.56,22.731Zm-0.012,8.079a1.935,1.935,0,1,0-1.92-1.941A1.934,1.934,0,0,0,450.548,30.811Zm0.008-1.935a0.7,0.7,0,1,1-.7.7A0.7,0.7,0,0,1,450.556,28.875Zm0,6.12a1.369,1.369,0,1,0-1.362-1.373A1.366,1.366,0,0,0,450.552,35Zm0.008-1.369a0.5,0.5,0,1,1-.5.494A0.495,0.495,0,0,1,450.56,33.627Z"/>
</svg>
