<svg id="圖層_1" data-name="圖層 1" xmlns="http://www.w3.org/2000/svg" viewBox="0 0 53 35"><defs><style>.cls-1{fill:#e60012;}.cls-2{fill:#004ea2;}</style></defs><title>logo</title><path class="cls-1" d="M15.71,1.18A.38.38,0,0,1,16,1.05a.24.24,0,0,1,.23.27.41.41,0,0,1-.13.27,24.3,24.3,0,0,0-5.85,16,24,24,0,0,0,5.85,15.86.42.42,0,0,1,.13.27A.24.24,0,0,1,16,34a.38.38,0,0,1-.26-.13l-14.43-14a3,3,0,0,1,0-4.72l14.43-14"/><path class="cls-2" d="M26.81,0c-5.65,0-7.86,8-7.86,17.55S21.16,35,26.81,35c3.39,0,6.28-2,6.29-3.62a1.37,1.37,0,0,0-.44-1,6.34,6.34,0,0,1-2.24-4.47,4.6,4.6,0,0,1,4.35-4.56c2.88,0,4.57,2.26,4.57,5.19a12.13,12.13,0,0,1-2.47,6.93.43.43,0,0,0-.07.23c0,.15.08.27.21.27a.4.4,0,0,0,.27-.14l14.44-14a3,3,0,0,0,0-4.72l-14.44-14A.4.4,0,0,0,37,1c-.13,0-.21.12-.21.27a.44.44,0,0,0,.07.24,12.12,12.12,0,0,1,2.47,6.93c0,2.92-1.7,5.19-4.57,5.19a4.6,4.6,0,0,1-4.35-4.56,6.34,6.34,0,0,1,2.24-4.47,1.38,1.38,0,0,0,.44-1C33.09,2,30.2,0,26.81,0Z"/></svg>