<?xml version="1.0" encoding="utf-8"?>
<!-- Generator: Adobe Illustrator 21.0.2, SVG Export Plug-In . SVG Version: 6.00 Build 0)  -->
<svg version="1.1" id="圖層_1" xmlns="http://www.w3.org/2000/svg" xmlns:xlink="http://www.w3.org/1999/xlink" x="0px" y="0px"
	 viewBox="0 0 99 19" style="enable-background:new 0 0 99 19;" xml:space="preserve">
<style type="text/css">
	.st0{opacity:0.3;}
	.st1{fill:#E0AD37;}
	.st2{fill:#FFE000;}
	.st3{fill:#CB9931;}
</style>
<title>star-alph</title>
<g class="st0">
	<polygon class="st1" points="67,7.4 59.8,7.4 69.2,10.4 	"/>
	<polygon class="st2" points="69.2,10.4 69.2,10.4 75.1,18.5 72.9,11.6 	"/>
	<polygon class="st1" points="63.4,18.5 69.2,14.2 69.2,10.4 	"/>
	<polygon class="st2" points="78.7,7.4 71.5,7.4 69.2,10.4 	"/>
	<polygon class="st3" points="69.2,14.2 75.1,18.5 69.2,10.4 	"/>
	<polygon class="st2" points="69.2,10.4 65.6,11.6 63.4,18.5 69.2,10.4 	"/>
	<polygon class="st2" points="67,7.4 69.2,10.4 69.2,0.5 	"/>
	<polygon class="st1" points="69.2,0.5 69.2,10.4 71.5,7.4 	"/>
	<polygon class="st3" points="69.2,10.4 59.8,7.4 65.6,11.6 69.2,10.4 	"/>
	<polygon class="st3" points="69.2,10.4 72.9,11.6 78.7,7.4 69.2,10.4 	"/>
</g>
<g class="st0">
	<polygon class="st1" points="47.3,7.4 40,7.4 49.5,10.4 	"/>
	<polygon class="st2" points="49.5,10.4 49.5,10.4 55.3,18.5 53.1,11.6 	"/>
	<polygon class="st1" points="43.7,18.5 49.5,14.2 49.5,10.4 	"/>
	<polygon class="st2" points="59,7.4 51.7,7.4 49.5,10.4 	"/>
	<polygon class="st3" points="49.5,14.2 55.3,18.5 49.5,10.4 	"/>
	<polygon class="st2" points="49.5,10.4 45.9,11.6 43.7,18.5 49.5,10.4 	"/>
	<polygon class="st2" points="47.3,7.4 49.5,10.4 49.5,0.5 	"/>
	<polygon class="st1" points="49.5,0.5 49.5,10.4 51.7,7.4 	"/>
	<polygon class="st3" points="49.5,10.4 40,7.4 45.9,11.6 49.5,10.4 	"/>
	<polygon class="st3" points="49.5,10.4 53.1,11.6 59,7.4 49.5,10.4 	"/>
</g>
<g class="st0">
	<polygon class="st1" points="27.5,7.4 20.3,7.4 29.8,10.4 	"/>
	<polygon class="st2" points="29.8,10.4 29.8,10.4 35.6,18.5 33.4,11.6 	"/>
	<polygon class="st1" points="23.9,18.5 29.8,14.2 29.8,10.4 	"/>
	<polygon class="st2" points="39.2,7.4 32,7.4 29.8,10.4 	"/>
	<polygon class="st3" points="29.8,14.2 35.6,18.5 29.8,10.4 	"/>
	<polygon class="st2" points="29.8,10.4 26.1,11.6 23.9,18.5 29.8,10.4 	"/>
	<polygon class="st2" points="27.5,7.4 29.8,10.4 29.8,0.5 	"/>
	<polygon class="st1" points="29.8,0.5 29.8,10.4 32,7.4 	"/>
	<polygon class="st3" points="29.8,10.4 20.3,7.4 26.1,11.6 29.8,10.4 	"/>
	<polygon class="st3" points="29.8,10.4 33.4,11.6 39.2,7.4 29.8,10.4 	"/>
</g>
<g class="st0">
	<polygon class="st1" points="7.8,7.4 0.5,7.4 10,10.4 	"/>
	<polygon class="st2" points="10,10.4 10,10.4 15.8,18.5 13.6,11.6 	"/>
	<polygon class="st1" points="4.1,18.5 10,14.2 10,10.4 	"/>
	<polygon class="st2" points="19.5,7.4 12.2,7.4 10,10.4 	"/>
	<polygon class="st3" points="10,14.2 15.8,18.5 10,10.4 	"/>
	<polygon class="st2" points="10,10.4 6.4,11.6 4.1,18.5 10,10.4 	"/>
	<polygon class="st2" points="7.8,7.4 10,10.4 10,0.5 	"/>
	<polygon class="st1" points="10,0.5 10,10.4 12.2,7.4 	"/>
	<polygon class="st3" points="10,10.4 0.5,7.4 6.4,11.6 10,10.4 	"/>
	<polygon class="st3" points="10,10.4 13.6,11.6 19.5,7.4 10,10.4 	"/>
</g>
<g class="st0">
	<polygon class="st1" points="86.8,7.4 79.6,7.4 89,10.4 	"/>
	<polygon class="st2" points="89,10.4 89,10.4 94.9,18.5 92.6,11.6 	"/>
	<polygon class="st1" points="83.2,18.5 89,14.2 89,10.4 	"/>
	<polygon class="st2" points="98.5,7.4 91.2,7.4 89,10.4 	"/>
	<polygon class="st3" points="89,14.2 94.9,18.5 89,10.4 	"/>
	<polygon class="st2" points="89,10.4 85.4,11.6 83.2,18.5 89,10.4 	"/>
	<polygon class="st2" points="86.8,7.4 89,10.4 89,0.5 	"/>
	<polygon class="st1" points="89,0.5 89,10.4 91.2,7.4 	"/>
	<polygon class="st3" points="89,10.4 79.6,7.4 85.4,11.6 89,10.4 	"/>
	<polygon class="st3" points="89,10.4 92.6,11.6 98.5,7.4 89,10.4 	"/>
</g>
</svg>
