<svg id="群組_1" data-name="群組 1" xmlns="http://www.w3.org/2000/svg" width="46" height="14" viewBox="0 0 46 14">
  <defs>
    <style>
      .cls-1 {
        fill: #333;
        fill-rule: evenodd;
      }
    </style>
  </defs>
  <path id="形狀_11" data-name="形狀 11" class="cls-1" d="M14.436,1.127a4.976,4.976,0,0,1,1.121.168,4.677,4.677,0,0,0,1.038.467c0.4,0.015,1.352-.317.894,0.509-0.055.1-.131,0.156-0.172,0.253a9.649,9.649,0,0,0,.5,1.3,4.436,4.436,0,0,1,.115,1.312A6.372,6.372,0,0,1,17.1,7.578a8.355,8.355,0,0,0-.752,1.74,12.155,12.155,0,0,1-.524,1.272,1.3,1.3,0,0,1-.429.858,1.407,1.407,0,0,0-.335.078,6.985,6.985,0,0,0-.556.437c-0.113-.013-0.208-0.11-0.326-0.127a0.725,0.725,0,0,1-.345,0,0.7,0.7,0,0,1,.412-0.747,1.884,1.884,0,0,0,.067-0.32c0.2-.6.288-1.946-0.45-2.3a0.144,0.144,0,0,0-.028-0.194,0.767,0.767,0,0,0-.365.3,9.9,9.9,0,0,0-1.332,1.8,7.95,7.95,0,0,1-1.083,2.153,4.787,4.787,0,0,1-.536.461c-0.732.474-.719-0.729-0.628-1.078,0.159-.605.46-1.135,0.584-1.755a4.031,4.031,0,0,1,.6-1.679c-0.212.28-.912,0.092-1.168,0.288a0.517,0.517,0,0,0-.159.382A12.139,12.139,0,0,0,9.6,11.813c0,0.58.164,1.835-.529,2.11a0.225,0.225,0,0,1-.287-0.029,0.067,0.067,0,0,1-.068.059,1.377,1.377,0,0,1-.537-0.068c0.009-.127.1-0.228,0.115-0.369a4.044,4.044,0,0,0-.01-0.476A10.949,10.949,0,0,0,7.859,10.9a8.5,8.5,0,0,0-.248-2.215,3.889,3.889,0,0,0-.422.272A1.731,1.731,0,0,1,6.03,8.9a1.1,1.1,0,0,1-.7-0.99,0.389,0.389,0,0,1,.087-0.049,1.33,1.33,0,0,1,.431-0.776,3.769,3.769,0,0,0,.287-1.816c0-.044-0.025-0.088-0.028-0.137a0.959,0.959,0,0,0-.01-0.33,0.632,0.632,0,0,0-.307-0.155c-0.576-.3-0.493-1.163-0.546-1.7C5.213,2.635,5.051,2.427,5.034,2.135a0.3,0.3,0,0,1,.172-0.359,0.769,0.769,0,0,1,.24.117C5.737,3.054,6.824,3.1,7.8,2.87a23.441,23.441,0,0,0,3.21-1,7.356,7.356,0,0,1,3.206-.759Zm0.112,0.047c0.04,0,.053.017,0.076-0.01A0.062,0.062,0,0,0,14.548,1.174Z"/>
  <path id="形狀_12" data-name="形狀 12" class="cls-1" d="M25.949,7.653l-0.441.515a9.551,9.551,0,0,0-.881-0.73,20.189,20.189,0,0,1,.128,2.189,6.836,6.836,0,0,1-.377,2.79,1.021,1.021,0,0,1-.6.485,3.306,3.306,0,0,1-1.038.141H22.315l-0.288-.68q0.626,0.037.99,0.037a0.831,0.831,0,0,0,.891-0.583A8.13,8.13,0,0,0,24.1,9.665q0-.362-0.019-0.657a9.043,9.043,0,0,1-2.65,2.49l-0.409-.527A8,8,0,0,0,24,7.892a7.246,7.246,0,0,0-.249-1.269,9.782,9.782,0,0,1-2.313,2.4l-0.434-.49A8.689,8.689,0,0,0,23.49,5.893,2.988,2.988,0,0,0,23,5.1a7.78,7.78,0,0,1-1.591,1.318l-0.4-.527A6.324,6.324,0,0,0,23.49,3.207H21.255V2.57H25.7V3.207H24.224a6.756,6.756,0,0,1-.8,1.38,5.458,5.458,0,0,1,.76,1.22,4.622,4.622,0,0,0,1.277-1.331l0.485,0.466a5.2,5.2,0,0,1-1.558,1.466,0.57,0.57,0,0,1,.057.215A9.059,9.059,0,0,1,25.949,7.653Zm6.475-1.306H30.151A12.481,12.481,0,0,1,28.657,7.69H31.6v5.353h-0.67V12.3H27.417v0.742H26.734v-4.1a7.531,7.531,0,0,1-.983.442l-0.4-.527a13.033,13.033,0,0,0,3.9-2.514h-3.4v-0.6h2.325V4.14h-2V3.52h2V2.067h0.67V3.52H30.63V4.14H28.842V5.746h1A14.211,14.211,0,0,0,31.8,2.895l0.588,0.288A17.406,17.406,0,0,1,30.7,5.746h1.723v0.6ZM30.931,9.652V8.315H27.782a4.2,4.2,0,0,1-.364.227v1.11h3.514Zm0,2V10.278H27.417v1.379h3.514Zm14.062,0.417a0.892,0.892,0,0,1-.223.629,0.959,0.959,0,0,1-.62.288,9.932,9.932,0,0,1-1.1.046q-0.477,0-1.1-.037l-0.261-.711q0.554,0.048,2.248.049a0.348,0.348,0,0,0,.4-0.393V4.55h-4.19a2.056,2.056,0,0,1-.191.466,27.366,27.366,0,0,1,3.685,2.625l-0.415.552a21.853,21.853,0,0,0-3.545-2.588,7.5,7.5,0,0,1-2.983,2.753l-0.434-.583A5.821,5.821,0,0,0,39.424,4.55H35.395v8.413H34.712V3.888H39.6a8.18,8.18,0,0,0,.262-1.913h0.708a8.975,8.975,0,0,1-.261,1.913h4.681v8.186ZM43.23,11.019l-0.446.527a21.962,21.962,0,0,0-3.142-2.36,7.139,7.139,0,0,1-2.952,2.471l-0.485-.527A5.99,5.99,0,0,0,39.852,7.2L40.5,7.377a5.426,5.426,0,0,1-.523,1.257A29.357,29.357,0,0,1,43.23,11.019Z"/>
</svg>
