<svg xmlns="http://www.w3.org/2000/svg" width="46" height="14" viewBox="0 0 46 14">
  <defs>
    <style>
      .cls-1 {
        fill: #333;
        fill-rule: evenodd;
      }
    </style>
  </defs>
  <path id="形狀_6" data-name="形狀 6" class="cls-1" d="M16.48,7.622a2.459,2.459,0,0,1-.531.9c-0.183.259-.182,0.37,0.221,0.229s0.184-.092.367-0.518A0.5,0.5,0,0,0,16.48,7.622ZM16.032,6.71c0.051-.444.276-0.453-0.183-0.984A1.293,1.293,0,0,1,15.511,7,0.374,0.374,0,0,0,16.032,6.71ZM15,7.685a3.386,3.386,0,0,1-.514.373s-0.329.3,0.366,0.376c0.381,0.04.8-.9,0.916-1.126C15.77,7.308,15.778,6.963,15,7.685Zm0.425,1.3a1.6,1.6,0,0,1-.672.387,1.829,1.829,0,0,1-.383.118c-0.106.005-.018,0.276,0.42,0.221s0.783,0.056.854-.62C15.7,8.591,15.511,8.911,15.427,8.986ZM14.439,5.108a0.748,0.748,0,0,0-.659.108,0.079,0.079,0,0,0,0,.037,1.13,1.13,0,0,0,.469.319,0.559,0.559,0,0,0,.639.084,0.377,0.377,0,0,0,.149-0.241c0.051-.242-0.11-0.3-0.3-0.312C14.638,5.1,14.527,5.107,14.439,5.108Zm-0.387,3.3a0.781,0.781,0,0,0-.532.162c-0.245.188-1.371,0.05-1.127,0.274a2.684,2.684,0,0,0,1.937-.08C14.873,8.478,14.053,8.407,14.053,8.407ZM13.6,5.586a1.3,1.3,0,0,0-.429.442,2.672,2.672,0,0,0-.456.565,0.36,0.36,0,0,0-.033.142,1.387,1.387,0,0,0,.043.309c0.027,0.144.049,0.415,0.248,0.4a2.451,2.451,0,0,0,.894-0.724c0.21-.152.809-0.567,0.427-0.841A0.888,0.888,0,0,0,13.6,5.586Zm0.3,3.92a0.8,0.8,0,0,0-.585-0.039c-0.3.1-1.4-.486-1.219-0.156a2.947,2.947,0,0,0,1.988.677C14.707,9.9,13.894,9.506,13.894,9.506Zm-0.807,1.328c-0.447-.218-0.365.089-0.365,0.089a2.377,2.377,0,0,1,.166.418c0.188,0.727.316,0.515,0.316,0.515A1.365,1.365,0,0,0,13.086,10.833ZM12.93,11.941a0.913,0.913,0,0,1-.29.9c0.483-.147.35-0.238,0.491-0.524A0.264,0.264,0,0,0,12.93,11.941Zm-0.031-1.5a1.9,1.9,0,0,0-1.135-.778c-0.233.043,0.5,0.384,0.572,0.589a0.549,0.549,0,0,0,.258.3S13.116,10.814,12.9,10.438ZM8.141,5.122s-0.123-.043-0.052.341a0.938,0.938,0,0,1-.276.8,2.2,2.2,0,0,0-.687,1.371,0.929,0.929,0,0,0,.08.311,1.535,1.535,0,0,0,.479.667,0.9,0.9,0,0,0,.1.061,1.148,1.148,0,0,0,.938.045,2.841,2.841,0,0,1,1.142-.208,2.84,2.84,0,0,1,1.143.208,1.106,1.106,0,0,0,1.027-.1c0.019-.013.037-0.027,0.055-0.042a1.488,1.488,0,0,0,.426-0.617c0.018-.045.047-0.088,0.063-0.134A0.78,0.78,0,0,0,12.613,7.6a1.912,1.912,0,0,0-.54-1.149c-0.054-.063-0.111-0.125-0.162-0.189a0.939,0.939,0,0,1-.276-0.8c0.071-.384-0.052-0.341-0.052-0.341s-0.2.447-.345,0.374a3.194,3.194,0,0,0-2.752,0C8.34,5.569,8.141,5.122,8.141,5.122ZM12.512,3.7a2.473,2.473,0,0,1-.479-0.974,2.275,2.275,0,0,1-1.541-1.2A2.56,2.56,0,0,0,12.512,3.7Zm-0.652,7.645a2.174,2.174,0,0,1,.028.415c-0.038.695,0.136,0.543,0.136,0.543a1.271,1.271,0,0,0,.184-0.936C11.874,11.054,11.859,11.348,11.859,11.348Zm-0.151-.7a0.5,0.5,0,0,0,.144.333s0.386,0.38.3-.013a1.736,1.736,0,0,0-.785-1C11.149,9.943,11.7,10.445,11.708,10.648Zm0.049,1.659a0.855,0.855,0,0,1-.51.714c0.469,0,.377-0.114.582-0.329A0.243,0.243,0,0,0,11.758,12.307Zm0.307-3.455a1.6,1.6,0,0,1-1.4-.045,2.758,2.758,0,0,0-1.6,0,1.6,1.6,0,0,1-1.4.045A2.271,2.271,0,0,0,8,9.314a2.555,2.555,0,0,0,3.6.122A2.365,2.365,0,0,0,12.064,8.852Zm0.127-6.212a3.282,3.282,0,0,0,.516,1.076,3.918,3.918,0,0,0,.394.46,7.172,7.172,0,0,0,.642.78l0.709-.085,0.36-.043c-0.028-.044-0.056-0.088-0.091-0.134a8.309,8.309,0,0,1-.452-0.72c-0.061-.13-0.126-0.259-0.186-0.394a4.7,4.7,0,0,0-.5-0.954,3.571,3.571,0,0,0-2.474-1.6,1.846,1.846,0,0,0-.557.016A1.733,1.733,0,0,1,12.191,2.639Zm-4.5.09a2.475,2.475,0,0,1-.479.974,2.56,2.56,0,0,0,2.02-2.178A2.275,2.275,0,0,1,7.693,2.729ZM5.982,4.956a7.215,7.215,0,0,0,.642-0.78,3.972,3.972,0,0,0,.394-0.46,3.288,3.288,0,0,0,.516-1.076A1.733,1.733,0,0,1,9.17,1.045a1.768,1.768,0,0,0-.48-0.023,3.529,3.529,0,0,0-2.551,1.6,4.686,4.686,0,0,0-.5.954c-0.06.135-.125,0.263-0.186,0.394A8.1,8.1,0,0,1,5,4.694c-0.034.046-.063,0.09-0.091,0.134L5.249,4.868Zm1.986,7.351a0.243,0.243,0,0,0-.072.385c0.205,0.215.113,0.331,0.582,0.329A0.855,0.855,0,0,1,7.968,12.307ZM7.873,10.981a0.5,0.5,0,0,0,.144-0.333c0.009-.2.559-0.7,0.341-0.679a1.736,1.736,0,0,0-.785,1C7.487,11.361,7.873,10.981,7.873,10.981ZM7.962,9.66a1.9,1.9,0,0,0-1.135.778c-0.217.376,0.3,0.109,0.3,0.109a0.545,0.545,0,0,0,.258-0.3C7.464,10.044,8.2,9.7,7.962,9.66Zm-0.124,2.1a2.158,2.158,0,0,1,.029-0.415s-0.015-.293-0.349.022a1.272,1.272,0,0,0,.184.936S7.876,12.458,7.838,11.763Zm-1.421-2.3a0.794,0.794,0,0,0-.585.039s-0.814.4-.184,0.482a2.947,2.947,0,0,0,1.988-.677C7.821,8.98,6.718,9.567,6.417,9.466Zm0.915-.623C7.576,8.62,6.451,8.758,6.205,8.57a0.78,0.78,0,0,0-.532-0.162S4.852,8.478,5.4,8.763A2.684,2.684,0,0,0,7.332,8.844ZM6.559,6.027A1.3,1.3,0,0,0,6.13,5.586a0.889,0.889,0,0,0-.7.292c-0.381.274,0.218,0.689,0.427,0.841a2.455,2.455,0,0,0,.894.724c0.2,0.015.221-.256,0.248-0.4a1.378,1.378,0,0,0,.044-0.309,0.37,0.37,0,0,0-.033-0.142A2.676,2.676,0,0,0,6.559,6.027Zm0.28,5.313A2.378,2.378,0,0,1,7,10.922s0.081-.307-0.365-0.089a1.366,1.366,0,0,0-.117,1.022S6.651,12.067,6.839,11.34Zm-0.043.6a0.264,0.264,0,0,0-.2.373c0.141,0.287.008,0.377,0.49,0.524A0.913,0.913,0,0,1,6.8,11.941ZM5.354,9.491a1.818,1.818,0,0,1-.382-0.118A1.6,1.6,0,0,1,4.3,8.986c-0.085-.075-0.274-0.4-0.22.106,0.073,0.676.416,0.565,0.855,0.62S5.46,9.5,5.354,9.491ZM4.872,8.434c0.694-.072.365-0.376,0.365-0.376a3.373,3.373,0,0,1-.514-0.373C3.948,6.963,3.956,7.308,3.956,7.308,4.073,7.537,4.49,8.473,4.872,8.434ZM4.9,5.689a0.592,0.592,0,0,0,.581-0.117,1.129,1.129,0,0,0,.47-0.319,0.091,0.091,0,0,0,0-.037,0.747,0.747,0,0,0-.658-0.108c-0.1,0-.215-0.012-0.324,0-0.177.014-.323,0.078-0.274,0.31A0.362,0.362,0,0,0,4.9,5.689ZM4.215,7a1.3,1.3,0,0,1-.338-1.278c-0.46.532-.233,0.541-0.183,0.984A0.375,0.375,0,0,0,4.215,7Zm-0.968.618a0.5,0.5,0,0,0-.057.612c0.182,0.426-.037.378,0.367,0.518s0.4,0.03.221-.229A2.455,2.455,0,0,1,3.247,7.622ZM23.039,8.48a24.578,24.578,0,0,1-2.077,3.864l-0.59-.425A16.447,16.447,0,0,0,22.423,8.1ZM23.013,6.308l-0.462.529A11.014,11.014,0,0,0,20.4,5.286l0.45-.529A15.034,15.034,0,0,1,23.013,6.308Zm0.456-3.391-0.456.529a14.491,14.491,0,0,0-2.18-1.588l0.443-.542A14.447,14.447,0,0,1,23.469,2.917Zm8.18,0.369H25.02a13.354,13.354,0,0,1-1.257,1.538l-0.583-.406a11.464,11.464,0,0,0,2.237-3.126l0.615,0.265a10.62,10.62,0,0,1-.6,1.1h6.218V3.286Zm0.16,4.486h-1.1l-0.147,2.24h0.987v0.647H30.495a2.259,2.259,0,0,1-.584,1.317,2.078,2.078,0,0,1-1.468.424H27.475l-0.237-.646h1.538a1.032,1.032,0,0,0,1.013-1.1H23.917q0.4-2.117.513-2.886H23.276V7.126h1.218q0.225-1.569.327-2.72h6q-0.033,1.932-.077,2.72h1.063V7.772Zm-1.788,0H25.1q-0.135,1-.366,2.24h5.123Q29.963,8.843,30.02,7.772ZM30.13,5.04H25.456q-0.064.621-.263,2.086h4.872ZM28.617,9.194l-0.43.5a10.328,10.328,0,0,0-1.763-1.071l0.4-.554A14,14,0,0,1,28.617,9.194Zm0.134-2.818L28.3,6.862a9.7,9.7,0,0,0-1.705-1l0.43-.5A9.673,9.673,0,0,1,28.751,6.376Zm6.3,3.452a13.865,13.865,0,0,1-.866,2.634L33.5,12.234a13.038,13.038,0,0,0,.9-2.585Zm3.769-.67H34.161V4.8a1.4,1.4,0,0,1-.333.265l-0.314-.622A9.739,9.739,0,0,0,35.969,1.3L36.6,1.57a8.064,8.064,0,0,1-.507.831h2.3V3.01q-0.507.616-1.128,1.261h1.564V9.157ZM37.533,3.01H35.72a10.019,10.019,0,0,1-.994,1.261h1.705A16.36,16.36,0,0,0,37.533,3.01Zm-1.366,3.4V4.886H34.815V6.413h1.352Zm0,2.166V7H34.815V8.579h1.352Zm0.116,3.655-0.692.1a13.171,13.171,0,0,0-.148-2.493l0.615-.116A15.792,15.792,0,0,1,36.284,12.234Zm1.59-.29-0.641.191A10.717,10.717,0,0,0,36.757,9.9l0.6-.178A11.348,11.348,0,0,1,37.874,11.944Zm0.288-5.532V4.886H36.834V6.413h1.328Zm0,2.166V7H36.834V8.579h1.328Zm1.167,2.959-0.615.228a10.686,10.686,0,0,0-.737-1.951l0.6-.215A12.235,12.235,0,0,1,39.328,11.538Zm5.66-1.876H42.457v2.775H41.771V9.662h-2.52V9.046h2.52V7.182H39.726V6.573h2.045V4.708H39.424V4.08h5.424V4.708H42.457V6.573h2.1V7.182h-2.1V9.046h2.532V9.662ZM41.469,3.434l-0.577.308a13.135,13.135,0,0,0-1.244-2.135l0.538-.314A9.742,9.742,0,0,1,41.469,3.434Zm3.115-1.828a13.029,13.029,0,0,1-1.263,2.16l-0.6-.357a11.511,11.511,0,0,0,1.243-2.055Z"/>
</svg>
