<svg xmlns="http://www.w3.org/2000/svg" width="46" height="14" viewBox="0 0 46 14">
  <defs>
    <style>
      .cls-1 {
        fill: #333;
        fill-rule: evenodd;
      }
    </style>
  </defs>
  <path id="形狀_9" data-name="形狀 9" class="cls-1" d="M17.3,6.517A0.733,0.733,0,0,0,17.227,5.6s0.08,0.052.181-.271a3.033,3.033,0,0,0,.046-0.908,3.028,3.028,0,0,1,.282-0.965,7.324,7.324,0,0,1,1.255-1.048s-0.02-.143-0.369-0.013a3.227,3.227,0,0,0-1.062.979,1.535,1.535,0,0,1-.915.636,2.133,2.133,0,0,0-.87.37L15.746,4.4H15.724a0.756,0.756,0,0,0-.915.332c-0.28.363-1.261,1.45-1.6,1.825A18.634,18.634,0,0,1,11.37,8.089c-2.348,1.7-8.363,2.931-8.363,2.931A35.024,35.024,0,0,0,9.4,11a10.053,10.053,0,0,0,4.454-1.715l0.007,0A11.394,11.394,0,0,0,17.3,6.517ZM10.754,10.3s4.078-2.235,5.213-3.624L16.1,7.036S12.924,9.948,10.754,10.3ZM26.518,6.478H24.367v1.6h1.844v0.6H24.3a4.861,4.861,0,0,1-1.792,3.362l-0.487-.49a4.036,4.036,0,0,0,1.613-2.872H21.756v-0.6h1.927v-1.6H21.544V5.866h1.364a19.415,19.415,0,0,0-.64-2.223l0.5-.361h-1.05V2.676h2.151a6.827,6.827,0,0,0-.512-1.463l0.615-.239a10.217,10.217,0,0,1,.576,1.7h1.785V3.282h-0.9l0.441,0.349a15.85,15.85,0,0,1-.717,2.235h1.364V6.478Zm-1.262-3.2h-2.4a17.86,17.86,0,0,1,.736,2.584H24.47A18.015,18.015,0,0,0,25.257,3.282ZM32.99,10.6l-0.39.527a8.151,8.151,0,0,1-2.663-3.288V12.02H29.309V7.911a7.932,7.932,0,0,1-3.2,3.258l-0.365-.514A7.537,7.537,0,0,0,28.708,7.66H26.986V4.347h2.323V3.055H26.935V2.443h2.375V1.108h0.627V2.443h2.888V3.055H29.937v1.28h2.35V7.66H30.526A7.73,7.73,0,0,0,32.99,10.6Zm-3.68-3.551V4.935H27.632V7.054h1.677Zm2.33,0V4.935h-1.7V7.054h1.7Z"/>
</svg>
