<svg xmlns="http://www.w3.org/2000/svg" width="46" height="14" viewBox="0 0 46 14">
  <defs>
    <style>
      .cls-1 {
        fill: #333;
        fill-rule: evenodd;
      }
    </style>
  </defs>
  <path id="形狀_3" data-name="形狀 3" class="cls-1" d="M5.169,1a0.681,0.681,0,0,1,.106.218C5.4,1.2,5.346,1,5.523,1.034a0.583,0.583,0,0,1,0,.326,2.3,2.3,0,0,1,.73.52C6.434,2.132,6.519,2.5,6.694,2.774,7.622,4.226,9,4.483,10.587,4.245c1.3-.2,1.975-1.688,3.117-2.268a3.523,3.523,0,0,1,1.382-.654c0.159,0.273.589,0.268,0.5,0.8a1.088,1.088,0,0,1,.46.182c-0.055.434,0.489,0.631,0.212,1.051a1.418,1.418,0,0,1-.106,1.015c-0.067.163-.265,0.272-0.319,0.435-0.032.095,0.034,0.2,0,.29a2.784,2.784,0,0,1-.744.8,4.634,4.634,0,0,0-.755,1.7A4.308,4.308,0,0,1,13.1,9.8,6.8,6.8,0,0,1,12,10.53a9.841,9.841,0,0,1-1.019.73,2.141,2.141,0,0,0,.814,1.7,1.766,1.766,0,0,1-.885-0.037c-0.628.062-.711,1.08-1.452,0.942-0.14-.02.1-0.222,0.141-0.289-0.3-.03-0.6,0-0.957-0.037A1.8,1.8,0,0,0,9.1,13.11a1.222,1.222,0,0,0,1.417-1.6,0.991,0.991,0,0,0-1.629.036,1.233,1.233,0,0,1-.283.036,6.121,6.121,0,0,0-1.063,1.124c-0.375.719,0.806,0.574,0.814,1.269H8.179a0.89,0.89,0,0,0-.992-0.363,0.5,0.5,0,0,1-.319-0.181,1.5,1.5,0,0,1-1.523.29c0.152-.171.483-0.158,0.637-0.327a6,6,0,0,1-1.027-.254,2.992,2.992,0,0,1,1.062-.072,0.5,0.5,0,0,0-.5-0.181c0.195-.3.554-0.031,0.779,0,0.915,0.126,1.006-.883,1.523-1.414A8.377,8.377,0,0,0,6.632,10.03c-0.657-.567-1.34-1.1-2-1.671A2.855,2.855,0,0,1,4.06,6.444a7.442,7.442,0,0,1,0-.981c0.009-.14.267-1.01,0.261-1.021a1.141,1.141,0,0,0-.319,0A1.9,1.9,0,0,1,4.425,3.5a0.7,0.7,0,0,1,.106-0.761C4.595,2.5,4.5,2.177,4.566,1.977a1.89,1.89,0,0,1,.567-0.689A0.692,0.692,0,0,1,5.169,1ZM31.839,11.83l-0.457.581A9.7,9.7,0,0,1,27.7,9.322a6.2,6.2,0,0,1,.1,1.124,2.839,2.839,0,0,1-.514,2.063,2.584,2.584,0,0,1-1.695.445c-0.241,0-.459-0.009-0.654-0.025l-0.222-.669a6.97,6.97,0,0,0,.856.051,2.213,2.213,0,0,0,1.038-.158A1.021,1.021,0,0,0,27,11.659a3.649,3.649,0,0,0,.14-1.231,7.067,7.067,0,0,0-.082-1.068,19.01,19.01,0,0,1-6.066,3.051l-0.369-.581a16.127,16.127,0,0,0,6.238-3.221,3.937,3.937,0,0,0-.35-0.979A15.805,15.805,0,0,1,21.3,10.049l-0.381-.638A13.183,13.183,0,0,0,26.21,7.018a5.375,5.375,0,0,0-.52-0.764,17.273,17.273,0,0,1-4.067,1.4l-0.362-.625a13.484,13.484,0,0,0,5.146-1.939H22.625V4.435h7.38V5.092H27.4a8.9,8.9,0,0,1-1.155.853,7.642,7.642,0,0,1,1.142,2.172,10.563,10.563,0,0,0,2.964-2.1l0.482,0.474a10.843,10.843,0,0,1-2.862,2.084A8.41,8.41,0,0,0,31.839,11.83ZM31.4,4.966H30.722V3.349h-8.89V4.966h-0.68V2.7H26.1a5.613,5.613,0,0,0-.381-0.941l0.666-.221c0.115,0.248.265,0.636,0.451,1.162H31.4V4.966ZM45,4.151l-0.324.594a15.347,15.347,0,0,1-1.847-.518V4.82H41.275L41.636,5.13a4.765,4.765,0,0,1-1.262.909,14.478,14.478,0,0,1,1.719.707l-0.355.48a18.521,18.521,0,0,0-2.1-.827,14.943,14.943,0,0,1-2.977.777L36.32,6.633a13.679,13.679,0,0,0,2.354-.53q-1.034-.334-1.688-0.48l0.349-.467q1.046,0.24,2.183.613a5.054,5.054,0,0,0,1.574-.947h-5.42V4.239a11.509,11.509,0,0,1-1.8.442L33.5,4.126A12.489,12.489,0,0,0,39.3,1.587l0.717,0.272q-0.076.076-.234,0.208A13.959,13.959,0,0,0,45,4.151ZM44.29,12.222a0.815,0.815,0,0,1-.806.751c-0.245,0-.618.007-1.117,0.007l-0.223-.657q0.35,0.031.877,0.031a0.936,0.936,0,0,0,.5-0.091A0.3,0.3,0,0,0,43.648,12V9.708H38.985a9.87,9.87,0,0,1-.634,1.44q1.477-.089,2.691-0.285-0.2-.227-0.508-0.543l0.494-.328a5.865,5.865,0,0,1,1.244,1.6l-0.558.354a3.34,3.34,0,0,0-.323-0.556q-2.6.329-5.2,0.543l-0.2-.6q1.2-.076,1.625-0.114a12.952,12.952,0,0,0,.691-1.516H35.177v3.271H34.529V9.708H33.641V9.077h0.888V8.66h0.648V9.077h3.337a8.882,8.882,0,0,0,.3-0.96H35.037V5.389h0.648V7.523H42.9V5.389h0.66V8.117H39.479q-0.107.417-.285,0.96h5.1v3.145Zm-1.6-8.033a14.766,14.766,0,0,1-3.459-1.711,13.648,13.648,0,0,1-3.376,1.711h3.236a4.477,4.477,0,0,0-.47-0.676l0.6-.259a5.625,5.625,0,0,1,.6.935h2.875Z"/>
</svg>
