<svg xmlns="http://www.w3.org/2000/svg" width="46" height="14" viewBox="0 0 46 14">
  <defs>
    <style>
      .cls-1 {
        fill: #333;
        fill-rule: evenodd;
      }
    </style>
  </defs>
  <path id="形狀_2" data-name="形狀 2" class="cls-1" d="M5.736,1.5a0.081,0.081,0,0,0-.067.078,0.382,0.382,0,0,0,.067.254L5.883,1.987A0.69,0.69,0,0,0,6,2.093a0.318,0.318,0,0,1,.1.085,0.449,0.449,0,0,1,.194.106,2.457,2.457,0,0,1-.741.672,0.936,0.936,0,0,0-.561.4,0.718,0.718,0,0,0,.18.466c0.12,0.071.214,0.148,0.24,0.155s0.227-.007.32,0a0.774,0.774,0,0,0,.134,0A4.675,4.675,0,0,1,6,5.019a1.123,1.123,0,0,1-.107.332A2.089,2.089,0,0,0,6.3,4.517c0.045-.382.385-0.707,0.592-0.544a1.669,1.669,0,0,1,.547.862,3.093,3.093,0,0,0,.3.862,0.914,0.914,0,0,1,.234.438,5.719,5.719,0,0,0,.107,1.336C8.205,7.79,8.733,8.242,8.8,8.517A4.519,4.519,0,0,1,8.766,9.8a2.521,2.521,0,0,1-.547,1.639c-0.367.24-.374,0.608-0.213,0.608s0.454-.029.454-0.029a0.755,0.755,0,0,1,.174-0.3c0.067-.007.467,0,0.467,0s0.227-.29.294-0.41a0.8,0.8,0,0,0,.067-0.319V10.828a4.542,4.542,0,0,1,.033-0.636A4.9,4.9,0,0,1,9.66,9.7a6.964,6.964,0,0,1,.134-0.877C9.854,8.609,9.881,8.5,9.881,8.5s0.187-.113.507,0.205a2.26,2.26,0,0,0,1.662.657A4.4,4.4,0,0,0,13.6,9.238c0.307-.078.62-0.212,0.654-0.028s0.007,0.261.06,0.579a2.306,2.306,0,0,0,.287.756,0.993,0.993,0,0,1-.04.714c-0.1.177-.234,0.579-0.334,0.792a0.909,0.909,0,0,1-.354.346,0.253,0.253,0,0,0,.093.339,0.462,0.462,0,0,0,.414,0s0.3-.382.3-0.4,0.06-.354.06-0.354a4.749,4.749,0,0,1,.087-0.544c0.04-.12.147-0.46,0.34-0.382a0.314,0.314,0,0,1,.154.332,11.162,11.162,0,0,1-.1,1.5,1.319,1.319,0,0,1-.307.4,2.08,2.08,0,0,0-.127.17c-0.007.021-.033,0.262-0.033,0.262a0.919,0.919,0,0,0,.38.219,0.486,0.486,0,0,0,.327,0l0.154-.339V13.436l-0.1-.021V13.2s0.14,0.042.194-.488a12.454,12.454,0,0,1,.12-1.463,0.53,0.53,0,0,0,.047-0.594c-0.167-.156-0.3-0.1-0.18-0.445A6.1,6.1,0,0,0,16.2,8.821a7.6,7.6,0,0,1,.554-1.958,1.373,1.373,0,0,0,.467-0.785c-0.013-.3.06-0.466-0.314-0.629a0.914,0.914,0,0,0-.58-0.1l-0.14.056,0.007,0.177a0.6,0.6,0,0,1,.407.36c0.087,0.283-.033.368-0.093,0.382s-0.14.056-.5-0.268a1.915,1.915,0,0,0-1.382-.792A9.042,9.042,0,0,1,12.3,5.04a4.9,4.9,0,0,1-1.762-1.032A4.187,4.187,0,0,0,9.52,3.945,7.9,7.9,0,0,1,8.3,2.609C7.932,2.164,7.491,1.733,8.112,1.74A2.321,2.321,0,0,0,9.226,1.7a1.122,1.122,0,0,0,.447-0.473S9.166,1.288,8.7,1.365a5.921,5.921,0,0,1-.934.17L7.665,1.5,7.618,1.026a3.82,3.82,0,0,1-.747.657A0.745,0.745,0,0,1,6.3,1.91,5.883,5.883,0,0,1,5.736,1.5Zm26.909,8.641H27.4v2.951H26.734V10.141h-5.3V9.448h5.3V7.326H22.162V6.666h4.572V4.556H21.722V3.883h10.64V4.556H27.4V6.666h4.534v0.66H27.4V9.448h5.245v0.693ZM25.79,3.249l-0.615.382a12.979,12.979,0,0,0-1.39-1.721l0.591-.4A15.776,15.776,0,0,1,25.79,3.249Zm4.793-1.4a11.46,11.46,0,0,1-1.749,1.773l-0.528-.453a15.763,15.763,0,0,0,1.674-1.682ZM45.007,12.126a0.983,0.983,0,0,1-.22.664,0.92,0.92,0,0,1-.61.3,9.139,9.139,0,0,1-1.082.049q-0.47,0-1.087-.039l-0.257-.751q0.546,0.051,2.213.052a0.355,0.355,0,0,0,.389-0.414v-7.8H40.228a2.261,2.261,0,0,1-.188.492,27.058,27.058,0,0,1,3.628,2.769l-0.408.582A21.666,21.666,0,0,0,39.77,5.3a7.62,7.62,0,0,1-2.937,2.905L36.4,7.591a5.969,5.969,0,0,0,3.119-3.4H35.556v8.878H34.884V3.489H39.7a9.213,9.213,0,0,0,.258-2.019h0.7A10.1,10.1,0,0,1,40.4,3.489h4.609v8.638Zm-1.736-1.113-0.439.556a21.836,21.836,0,0,0-3.094-2.491,7.175,7.175,0,0,1-2.906,2.607l-0.478-.556a6.176,6.176,0,0,0,3.591-4.147L40.58,7.171A5.957,5.957,0,0,1,40.066,8.5,29.093,29.093,0,0,1,43.272,11.014Z"/>
</svg>
