<svg xmlns="http://www.w3.org/2000/svg" width="46" height="14" viewBox="0 0 46 14">
  <defs>
    <style>
      .cls-1 {
        fill: #333;
        fill-rule: evenodd;
      }
    </style>
  </defs>
  <path id="形狀_7" data-name="形狀 7" class="cls-1" d="M10.066,4.516a2.48,2.48,0,0,1,1.659-.639,2.442,2.442,0,0,1,.586.071A2.291,2.291,0,0,0,7.783,3.79a2.457,2.457,0,0,1,.479-0.047A2.5,2.5,0,0,1,10.066,4.516ZM10.45,0.848A1.253,1.253,0,0,1,10.811,0l0.336,0.19a0.961,0.961,0,0,0-.584.693ZM11.1,1.7a0.9,0.9,0,1,1-1.8,0A0.9,0.9,0,1,1,11.1,1.7Zm-0.688-.37A0.362,0.362,0,1,1,10.049.962,0.366,0.366,0,0,1,10.411,1.332Zm0.074,11.013a2.015,2.015,0,0,1,.55-1.459H9.058a2.015,2.015,0,0,1,.55,1.459,1.462,1.462,0,0,1-.752,1.323h2.381A1.462,1.462,0,0,1,10.485,12.345Zm-0.234,0a3.4,3.4,0,0,1,.256-1.459H9.587a3.4,3.4,0,0,1,.256,1.459,1.937,1.937,0,0,1-.351,1.323H10.6A1.94,1.94,0,0,1,10.251,12.345Zm-0.172-1.278A4.378,4.378,0,0,0,14.709,7H5.449a4.378,4.378,0,0,0,4.63,4.071m0,0c1.44,0,2.607-1.823,2.607-4.071H7.473c0,2.248,1.167,4.071,2.607,4.071m5.01-4.086a0.3,0.3,0,0,1-.316.278H5.321a0.28,0.28,0,1,1,0-.555h9.452A0.3,0.3,0,0,1,15.089,6.98Zm-7.611.278H5.459C5.467,7.37,5.48,7.48,5.5,7.589h2Q7.485,7.426,7.478,7.258m7.222,0H12.681q-0.007.168-.022,0.331h2c0.018-.109.031-0.22,0.039-0.331m-2.019,0h-5.2Q7.485,7.426,7.5,7.589h5.158q0.015-.164.022-0.331M12.918,14l0.019-.112a0.278,0.278,0,0,0-.255-0.3H7.412a0.278,0.278,0,0,0-.255.3L7.176,14h5.742ZM9.269,6.464l0-.084a2.51,2.51,0,0,1,.625-1.665,2.244,2.244,0,0,0-1.63-.705A2.3,2.3,0,0,0,5.985,6.341l0,0.123h3.28Zm4.745,0V6.431a2.227,2.227,0,1,0-4.453,0V6.464h4.452ZM25.8,5.048H23.435V7.27h1.818V12.2H24.571v-0.66H21.827v0.934H21.144V7.27H22.8V5.048H20.545V4.368H22.8V2.121H21V1.473h4.325V2.121H23.435V4.368H25.8V5.048Zm-1.232,5.784V7.949H21.827v2.882h2.744ZM31.9,3.879H30.779v8.6H30.1V11.39H27.352v1.092H26.676v-8.6H25.591V3.187h1.085V1.175h0.676V3.187H30.1V1.175h0.683V3.187H31.9V3.879ZM30.1,6.857V3.879H27.352V6.857H30.1Zm0,3.873V7.5H27.352V10.73H30.1ZM34.983,10a11.976,11.976,0,0,1-.835,2.508l-0.6-.273A11.26,11.26,0,0,0,34.4,9.8Zm4.339-.533h-5.71V8.844h2.552V7.581H33.955V6.971h2.209V5.879H34.046V1.46h4.886V5.879H36.814V6.971h2.144V7.581H36.814V8.844h2.508V9.466Zm-3.158-4.2V2.07H34.7v3.2h1.468ZM35.9,4.527l-0.523.222a15.288,15.288,0,0,0-.447-1.886l0.485-.222A12.912,12.912,0,0,1,35.9,4.527ZM36.266,12.3l-0.652.1c0.009-.17.014-0.348,0.014-0.533A11.123,11.123,0,0,0,35.468,10l0.651-.063A19.347,19.347,0,0,1,36.266,12.3Zm1.531-.248-0.619.152a9.827,9.827,0,0,0-.415-2.286l0.613-.107A12.182,12.182,0,0,1,37.8,12.056ZM38.275,5.27V2.07H36.814v3.2h1.462ZM38.084,2.838a9.631,9.631,0,0,1-.536,1.949l-0.511-.21a9.072,9.072,0,0,0,.5-1.936Zm1.263,8.895-0.587.19a9.2,9.2,0,0,0-.651-2.038l0.625-.146A8.653,8.653,0,0,1,39.347,11.733Zm5.647-7.7H42.238V6.539h2.195v5.968H43.756v-1h-3.2v1h-0.7V6.539h1.684V1.175h0.7V3.4h2.756V4.032Zm-1.239,6.812V7.193h-3.2v3.651h3.2Z"/>
</svg>
