<svg xmlns="http://www.w3.org/2000/svg" width="46" height="14" viewBox="0 0 46 14">
  <defs>
    <style>
      .cls-1 {
        fill: #333;
        fill-rule: evenodd;
      }
    </style>
  </defs>
  <path id="形狀_5" data-name="形狀 5" class="cls-1" d="M7.511,9.233c-0.271,0-.518-0.012-0.743-0.031a2.5,2.5,0,0,0,1.114,1.2V9.226C7.755,9.23,7.63,9.233,7.511,9.233Zm0-5.239c0.237,0,.492.01,0.765,0.03L8.028,2.949A3.432,3.432,0,0,0,6.1,4.109,8.319,8.319,0,0,1,7.512,3.994Zm1.62,0.127C9.313,4.148,9.5,4.18,9.7,4.217a10.582,10.582,0,0,1,1.609.47L10.357,3.62A4.023,4.023,0,0,0,9.132,4.121Zm8.174,2.49,1.673-2.136a3.569,3.569,0,0,0-1.418.3,3.873,3.873,0,0,0-.906.68,4.933,4.933,0,0,1-.627.569,1.683,1.683,0,0,1-.765.142c-0.123,0-.208-0.007-0.209-0.007a7.571,7.571,0,0,1-2.721-.822,14.24,14.24,0,0,0-1.924-.727C9.933,4.475,9.66,4.427,9.657,4.426a11.345,11.345,0,0,0-2.146-.219A7.98,7.98,0,0,0,5.721,4.4,6.174,6.174,0,0,0,1.994,6.612,7.341,7.341,0,0,0,5.721,8.826a7.975,7.975,0,0,0,1.79.194A11.324,11.324,0,0,0,9.659,8.8s0.067-.011.2-0.041,0.316-.077.553-0.146a14.269,14.269,0,0,0,1.924-.727,6.982,6.982,0,0,1,2.675-.755h0.043a2.5,2.5,0,0,1,1.018.228c0.5,0.243.8,0.744,1.493,1.09a3.57,3.57,0,0,0,1.419.3L17.357,6.677Zm5.744,3.124a13.033,13.033,0,0,1-1.788,2.242l-0.5-.435a13.964,13.964,0,0,0,1.726-2.1Zm7.821-.8H22.011V4.172q-0.346.227-.75,0.441l-0.49-.5A9.822,9.822,0,0,0,24.524.974l0.711,0.239-0.479.643h4.01V2.493q-0.761.931-1.2,1.415H30.87V8.932ZM27.917,2.493h-3.74A14.088,14.088,0,0,1,22.42,3.909h4.206Q27.6,2.9,27.917,2.493ZM26.1,6.071V4.552H22.691V6.071H26.1Zm0,2.218V6.7H22.691V8.289H26.1Zm-0.346,3.627L25.089,12a13.588,13.588,0,0,0-.63-2.4L25.1,9.532A14.665,14.665,0,0,1,25.751,11.916ZM30.2,6.071V4.552H26.79V6.071H30.2Zm0,2.218V6.7H26.79V8.289H30.2Zm-1.612,3.553L27.942,12A11.4,11.4,0,0,0,27,9.63l0.649-.123A13.86,13.86,0,0,1,28.584,11.842ZM32,11.75L31.367,12a14.221,14.221,0,0,0-1.662-2.347L30.3,9.379A11.476,11.476,0,0,1,32,11.75ZM39.275,4.19h-2.2V6.671H36.423V4.19H33.835V3.621h2.587V1.035h0.649V3.621h2.2V4.19Zm0.013,4.466H37.015a2.477,2.477,0,0,1-.126.576,9.02,9.02,0,0,1,1.97,1.451l-0.434.466A9.117,9.117,0,0,0,36.706,9.82a5.4,5.4,0,0,1-2.242,2.223L33.936,11.6q2.248-1.195,2.411-2.946H33.873V8.062h2.513c0.033-.384.05-0.727,0.05-1.029h0.635c0.009,0.118.013,0.243,0.013,0.374a5.346,5.346,0,0,1-.038.655h2.242V8.656ZM35.894,5.017a6.421,6.421,0,0,1-1.378,2.016L34,6.647a8.873,8.873,0,0,0,1.366-1.905ZM35.743,2.9l-0.566.288a9.054,9.054,0,0,0-.907-1.581l0.566-.319A9.067,9.067,0,0,1,35.743,2.9Zm2.966,4.576-0.5.276a8.236,8.236,0,0,0-.7-0.717l0.5-.325A4.623,4.623,0,0,1,38.709,7.474Zm0.516-1.041-0.541.337A10.843,10.843,0,0,0,37.613,5.1l0.541-.325A10.067,10.067,0,0,1,39.225,6.433ZM39.106,1.605a6.276,6.276,0,0,1-.888,1.5l-0.567-.312A5.853,5.853,0,0,0,38.513,1.3Zm5.9,0.3H42.6a13.952,13.952,0,0,1-.4,1.507H44.42V9.471H41.454l0.416,0.423a8.349,8.349,0,0,1-2.2,2.071l-0.447-.448a7.056,7.056,0,0,0,2.128-2.046h-1.41V3.412h1.574a10.3,10.3,0,0,0,.415-1.507H39.376V1.329h5.635V1.905ZM43.777,5.164V3.988H40.592V5.164h3.185Zm0,1.8v-1.2H40.592v1.2h3.185Zm0,1.918V7.56H40.592V8.877h3.185Zm1.234,2.664-0.434.472a8.153,8.153,0,0,0-2.065-1.654l0.372-.453A7.145,7.145,0,0,1,45.011,11.541Z"/>
</svg>
