<svg xmlns="http://www.w3.org/2000/svg" width="46" height="14" viewBox="0 0 46 14">
  <defs>
    <style>
      .cls-1 {
        fill: #333;
        fill-rule: evenodd;
      }
    </style>
  </defs>
  <path id="形狀_8" data-name="形狀 8" class="cls-1" d="M15.458,1.169l-2.122.45,0.012,0.034a0.765,0.765,0,0,1-.706.744,0.722,0.722,0,0,1-.929-0.377l0-.054L9.182,2.5,9.2,2.562a0.767,0.767,0,0,1-.707.743,0.723,0.723,0,0,1-.929-0.378l0-.08L5.485,3.29,13.215,6.8a7.071,7.071,0,0,0,2.243-5.562V1.169ZM11.526,4.657a0.78,0.78,0,0,1-.884-0.519,0.779,0.779,0,0,1,.884-0.519,0.779,0.779,0,0,1,.884.519A0.78,0.78,0,0,1,11.526,4.657Zm4.645-2.786a7.69,7.69,0,0,1-2.526,5.562l0.442,5.35A10.35,10.35,0,0,0,16.171,1.871ZM11.838,7.025a0.782,0.782,0,0,1-.972.532,0.828,0.828,0,0,1-.7-0.912,0.648,0.648,0,0,1,.156-0.307l-1.868-.85a0.8,0.8,0,0,1-.946.449,0.83,0.83,0,0,1-.695-0.913,0.646,0.646,0,0,1,.1-0.236L5,3.913,6.74,9.778l6.628,3.186L12.918,7.515ZM10,8.928A0.9,0.9,0,0,1,8.829,9.5,0.975,0.975,0,0,1,8.1,8.363a0.785,0.785,0,0,1,.3-0.435A0.728,0.728,0,0,1,9.07,7.755h0a1.211,1.211,0,0,1,.2.039A0.975,0.975,0,0,1,10,8.928Zm22.743,2.9-0.191.713-5.016-.013a5.681,5.681,0,0,1-4.859-2.092,8.775,8.775,0,0,1-.88,2.275l-0.492-.51A14.586,14.586,0,0,0,22.577,6.8l0.645,0.124a22.117,22.117,0,0,1-.336,2.529,3.714,3.714,0,0,0,1.4,1.628v-5.2h-2.86V5.213h2.86V3.37H21.711v-0.7h2.574V1.024H24.95V2.671h1.878v0.7H24.95V5.213h2.2v0.66h-2.2V7.6h1.942V8.253H24.95v3.164a4.927,4.927,0,0,0,2.075.415q1.334,0.035,3.214.035Q32.034,11.867,32.744,11.828ZM32.668,7.789a5.821,5.821,0,0,1-.124,1.591,1.093,1.093,0,0,1-.6.787,5.528,5.528,0,0,1-1.847.2,5.043,5.043,0,0,1-1.847-.2,1.074,1.074,0,0,1-.385-1.027V1.658h4.276V5.926h-3.6V9.338a0.3,0.3,0,0,0,.329.288c0.219,0.026.656,0.039,1.309,0.039a3.653,3.653,0,0,0,1.5-.147,1.294,1.294,0,0,0,.215-0.311,9.086,9.086,0,0,0,.143-1.66Zm-1.2-2.517V2.324H28.536V5.272h2.929ZM45,11.749a0.925,0.925,0,0,1-.281.755,2.959,2.959,0,0,1-1.527.232q-0.539,0-1.38-.052l-0.234-.745q1.107,0.078,1.74.078a2.264,2.264,0,0,0,.828-0.088,0.379,0.379,0,0,0,.164-0.369v-9.6H34.338V1.278H45V11.749ZM42.942,4.442H34.729l0.014-.673h8.2V4.442Zm-0.892,5.8H35.558V6.181h6.491v4.065Zm-0.7-.693V6.874H36.273V9.553h5.075Z"/>
</svg>
