<svg xmlns="http://www.w3.org/2000/svg" width="46" height="14" viewBox="0 0 46 14">
  <defs>
    <style>
      .cls-1 {
        fill: #333;
        fill-rule: evenodd;
      }
    </style>
  </defs>
  <path id="形狀_1" data-name="形狀 1" class="cls-1" d="M3.7,1.512C3.939,1.621,4,1.9,4.253,2c0.217-.017.221-0.246,0.428-0.273C4.725,1.843,4.76,1.97,4.8,2.088a1.58,1.58,0,0,1,.948.273,7.291,7.291,0,0,0,2.048-.3,4.844,4.844,0,0,1,1.372.169,5.785,5.785,0,0,0,1.43.1c0.683-.016,1.366-0.029,2.05-0.02a15.2,15.2,0,0,0,1.965.012,7.774,7.774,0,0,1,1.169-.078,3.673,3.673,0,0,1,2.284.338,2.666,2.666,0,0,1,.224,1.184c0.047,0.71-.021,1.433.056,2.139,0.052,0.484.181,0.959,0.2,1.448a4.646,4.646,0,0,1-.3,1.31,0.316,0.316,0,0,1-.112.236,1.693,1.693,0,0,1-.089-1.267,5.817,5.817,0,0,0,.113-1.6,2.31,2.31,0,0,0-.56,1.511,2.864,2.864,0,0,0,.224,1.214,8.979,8.979,0,0,1,.1,1.352,1.874,1.874,0,0,0,0,.607,1.6,1.6,0,0,1-.306.212c0.052,0.531-.49.575-0.917,0.547a6.891,6.891,0,0,1,.436-1.19,1.409,1.409,0,0,0-.12-1.012,1.848,1.848,0,0,0-.438-0.832c-0.55.485-.417,1.649-1.131,1.972a3.23,3.23,0,0,0-.061.394,1.482,1.482,0,0,1-.917.03,2.925,2.925,0,0,1,.642-0.88,3.8,3.8,0,0,0,.254-1.211,1.289,1.289,0,0,0-.1-0.942,2.313,2.313,0,0,0-.473-0.2,0.965,0.965,0,0,0-.7-0.225,3.1,3.1,0,0,1-.893.188c-0.277-.029-0.54-0.129-0.819-0.157a15.49,15.49,0,0,0-1.617-.129,1.491,1.491,0,0,0-1.211.375,4.372,4.372,0,0,0-.22,1.177C9.28,9.125,9.131,9.4,9.064,9.7a4.612,4.612,0,0,0-.037.76C9.021,10.591,9,10.719,9,10.848a2.118,2.118,0,0,1,.022.4,0.632,0.632,0,0,1-.214.091c-0.024.165,0.048,0.235,0.03,0.394a1.328,1.328,0,0,1-.978,0,7.509,7.509,0,0,1,.347-0.9A2.218,2.218,0,0,0,8.3,10.344a2.389,2.389,0,0,0-.069-0.929A3.077,3.077,0,0,1,8.044,8.37a2.736,2.736,0,0,0-.691-0.8c-0.473-.579-0.48-1.392-0.98-1.953a1.541,1.541,0,0,0-.859-0.376,3.752,3.752,0,0,0-1.116.03A1.463,1.463,0,0,1,3.246,5.3c-0.2-.189.029-0.487,0.142-0.658a10.52,10.52,0,0,0,.468-1.009c0.11-.208.255-0.464,0-0.629a2.707,2.707,0,0,1-.63-0.542A3.794,3.794,0,0,1,3,2.058a7.271,7.271,0,0,1,.825.182A2.441,2.441,0,0,0,3.7,1.512ZM32.582,8.191H27.5v3.853H26.812V8.191H21.231V7.523h5.581V4.337H23.288A15.326,15.326,0,0,1,21.79,6.6l-0.6-.343A15.014,15.014,0,0,0,23.7,1.63l0.667,0.239Q23.98,2.879,23.6,3.7h3.212V1.011H27.5V3.7h4.526V4.337H27.5V7.523h5.085V8.191ZM45,11.064a0.893,0.893,0,0,1-.222.629,0.951,0.951,0,0,1-.616.287,9.821,9.821,0,0,1-1.092.046q-0.475,0-1.1-.037l-0.26-.711q0.551,0.048,2.235.049a0.347,0.347,0,0,0,.393-0.392V3.547H40.175a2.064,2.064,0,0,1-.189.466,27.214,27.214,0,0,1,3.663,2.622l-0.412.551A21.731,21.731,0,0,0,39.712,4.6a7.472,7.472,0,0,1-2.965,2.751L36.315,6.77a5.8,5.8,0,0,0,3.149-3.222H35.459v8.405H34.78V2.885h4.862A8.206,8.206,0,0,0,39.9.974h0.7a9,9,0,0,1-.26,1.911H45v8.178ZM43.248,10.01l-0.443.527a21.84,21.84,0,0,0-3.123-2.358,7.105,7.105,0,0,1-2.934,2.468l-0.482-.527A5.974,5.974,0,0,0,39.89,6.194l0.641,0.178a5.438,5.438,0,0,1-.52,1.256A29.174,29.174,0,0,1,43.248,10.01Z"/>
</svg>
